<?xml version="1.0" encoding="iso-8859-1"?>
<!-- Generator: Adobe Illustrator 19.0.0, SVG Export Plug-In . SVG Version: 6.00 Build 0)  -->
<svg version="1.1" id="Layer_1" xmlns="http://www.w3.org/2000/svg" xmlns:xlink="http://www.w3.org/1999/xlink" x="0px" y="0px"
	 viewBox="0 0 511.994 511.994" style="enable-background:new 0 0 511.994 511.994;" xml:space="preserve">
<g transform="translate(0 -540.36)">
	<path style="fill:#D9D9D9;" d="M256.023,1052.354c-97.976,0-181.469-62.03-213.308-148.973
		c37.468,80.247,118.871,135.841,213.279,135.841c94.411,0,175.841-55.59,213.308-135.841
		C437.471,990.324,353.999,1052.354,256.023,1052.354L256.023,1052.354z"/>
	<g transform="matrix(1.006 0 0 1.006 925.22 -4.24)">
		<circle style="fill:#F8F6DE;" cx="-665.232" cy="790.482" r="249.13"/>
		<path style="fill:#456196;" d="M-431.069,790.804c0,129.156-104.836,233.858-234.158,233.858S-899.386,919.96-899.386,790.804
			c0-129.156,104.836-233.858,234.158-233.858S-431.069,661.648-431.069,790.804z"/>
		<path style="fill:#9ADBB6;" d="M-895.122,834.513c-17.749-91.86,21.027-185.445,98.58-237.919
			c77.553-52.474,178.956-53.737,257.796-3.212s119.942,143.115,104.493,235.388l-230.952-38.567L-895.122,834.513z"/>
		
			<radialGradient id="SVGID_1_" cx="-1487.0676" cy="454.9838" r="35.7459" gradientTransform="matrix(1.006 0 0 -1.0047 925.5122 1058.6498)" gradientUnits="userSpaceOnUse">
			<stop  offset="0" style="stop-color:#FCD116"/>
			<stop  offset="1" style="stop-color:#FCD116;stop-opacity:0"/>
		</radialGradient>
		<path style="fill:url(#SVGID_1_);" d="M-587.859,570.367c-11.323,6.292-18.35,18.21-18.367,31.15
			c0.001,19.717,16.005,35.701,35.748,35.701c19.743,0,35.747-15.984,35.748-35.701c-0.012-1.68-0.144-3.358-0.393-5.02
			C-551.53,585.607-569.249,576.827-587.859,570.367z"/>
		<g transform="translate(0 540.36)">
			<path style="fill:#456196;" d="M-899.216,247.039c-0.065,1.134-0.122,2.268-0.17,3.402c0.098,17.555,2.175,35.042,6.191,52.133
				h456.01c3.991-17.093,6.042-34.581,6.115-52.133c-0.032-1.134-0.072-2.269-0.121-3.402H-899.216z"/>
			<path style="fill:#FFFFFF;" d="M-611.374,74.316l12.246,7.578c-4.321,2.356-7.307,5.676-8.393,9.33l11.736-7.262l5.016,3.104
				c-0.483-1.616-1.343-3.18-2.545-4.631l6.398-3.959c-2.965,0.194-5.871,0.796-8.545,1.77
				C-599.425,76.865-605.2,74.713-611.374,74.316z M-590.769,87.066l20.605-12.75C-580.255,74.962-588.751,80.219-590.769,87.066z
				 M-607.521,91.224c-2.019-6.846-10.514-12.102-20.605-12.748L-607.521,91.224z"/>
			<path style="fill:#3C517D;" d="M-838.882,108.34c-4.351-0.013-8.76,0.498-13.104,1.518c-3.31,4.343-6.466,8.801-9.463,13.365
				l26.523,13.648c-16.485,6.039-29.541,22.102-33.35,41.029l28.029-8.984c0.035,0.103,0.07,0.205,0.107,0.307
				c1.921,4.755,6.145,8.083,10.84,8.539c-12.851,30.193-17.46,69.695-12.332,109.551c3.541,27.523,11.471,52.596,22.965,72.959
				c6.208,10.998,13.593,20.688,21.85,28.363c-16.567,3.167-32.393,7.358-47.16,12.49c44.418,52.652,109.811,83.081,178.748,83.176
				c49.683-0.1,98.046-15.98,138.096-45.344c-41.333-35.886-114.219-57.734-192.713-57.768c-11.723,0.055-23.421,0.599-34.988,1.627
				c-0.523-2.541-0.978-5.178-1.342-7.936c-2.447-18.543-0.936-41.488,5.352-65.631c10.254-39.372,31.638-74.979,55.398-95.092
				c1.735,4.338,5.608,7.137,9.885,7.145c4.515-0.006,8.554-3.119,10.135-7.813l20.695,46.117
				c11.553-15.48,14.791-35.915,8.271-52.199l38.279,14.525c-2.897-19.818-15.878-37.013-32.787-43.428
				c-10.184-3.845-20.818-3.386-29.867,1.291c2.486-11.086-0.581-22.532-8.486-31.678c-9.747-11.263-25.645-17.677-42.301-17.066
				c-3.301,0.121-6.579,0.517-9.785,1.182l26.777,30.941c-17.508-0.535-35.579,9.455-46.193,25.537
				c-0.859-12.598-5.738-24.221-13.629-32.471l40.941-0.785c-10.089-17.309-28.556-28.427-46.641-28.08
				c-10.895,0.227-20.597,4.623-27.246,12.346c-1.825-11.217-8.941-20.703-19.691-26.25
				C-823.519,110.152-831.011,108.39-838.882,108.34z M-789.036,172.675l36.426,35.076c1.621-6.134,2.236-12.562,1.813-18.926
				l29.281,2.098c-0.006,0.108-0.01,0.216-0.014,0.324c0.006,5.127,2.681,9.788,6.865,11.961
				c-23.201,23.225-42.231,58.159-52.359,97.047c-6.994,26.855-9.002,53.071-5.943,76.246c0.36,2.728,0.802,5.417,1.311,8.064
				c-0.247,0.038-0.495,0.075-0.742,0.113l0.09-1.057c-11.413-4.388-22.192-14.83-31.389-31.123
				c-9.196-16.293-16.365-38.144-19.549-62.885c-5.192-40.349,1.351-81.351,15.885-108.863c3.23,3.38,7.87,4.534,11.842,2.947
				C-791.334,182.011-788.75,177.619-789.036,172.675L-789.036,172.675z"/>
		</g>
		<path style="fill:#FBF8E7;" d="M-725.616,951.152l-0.727-81.605h74.626l-1.126,80.755L-725.616,951.152z"/>
		<g>
			<path style="fill:#E74C3C;" d="M-725.864,865.291c2.334,0,4.213,0.924,4.213,2.073v85.777c0,1.148-1.879,2.073-4.213,2.073
				s-4.213-0.924-4.213-2.073v-85.777C-730.077,866.215-728.198,865.291-725.864,865.291z"/>
			
				<g image-rendering="auto" shape-rendering="auto" color-rendering="auto" transform="translate(0 540.36)" color-interpolation="sRGB">
				<path style="fill:#E74C3C;" d="M-704.87,410.131l-13.111,0.639l0.059,0.514c1.216,12.067,3.135,24.106,4.223,36.166
					c0.001,1.526,1.287,2.762,2.873,2.762c1.586,0,2.872-1.236,2.873-2.762v-0.012L-704.87,410.131z"/>
				<path style="fill:#E74C3C;" d="M-660.333,409.529l-13.111,0.648l0.059,0.516l4.264,36.775l0.002,0.01
					c0.017,1.513,1.297,2.732,2.871,2.732c1.586,0,2.872-1.236,2.873-2.762C-662.448,434.839-661.362,422.159-660.333,409.529
					L-660.333,409.529z"/>
			</g>
		</g>
		<g>
			<ellipse style="fill:#FDC42A;" cx="-689.182" cy="947.332" rx="32.597" ry="7.06"/>
			<path style="fill:#FDC42A;" d="M-708.643,867.902L-708.643,867.902c1.458,0,2.639,1.362,2.639,3.041v71.608
				c0,1.68-1.181,3.041-2.638,3.041h-0.001c-1.457,0-2.638-1.362-2.638-3.041v-71.608
				C-711.281,869.263-710.1,867.902-708.643,867.902z"/>
			<path style="fill:#FDC42A;" d="M-694.837,867.902L-694.837,867.902c1.516,0,2.745,1.362,2.745,3.041v71.608
				c0,1.68-1.229,3.041-2.745,3.041l0,0c-1.516,0-2.745-1.362-2.745-3.041v-71.608
				C-697.582,869.263-696.353,867.902-694.837,867.902z"/>
			<path style="fill:#FDC42A;" d="M-682.004,867.902L-682.004,867.902c1.458,0,2.639,1.362,2.639,3.041v71.608
				c0,1.68-1.181,3.041-2.638,3.041h-0.001c-1.457,0-2.638-1.362-2.638-3.041v-71.608
				C-684.642,869.263-683.46,867.902-682.004,867.902z"/>
			<path style="fill:#FDC42A;" d="M-669.576,867.902L-669.576,867.902c1.34,0,2.426,1.362,2.426,3.041v71.608
				c0,1.68-1.086,3.041-2.425,3.041h0c-1.34,0-2.425-1.362-2.425-3.041v-71.608C-672.002,869.263-670.916,867.902-669.576,867.902z"
				/>
		</g>
		<g>
			<path style="fill:#E74C3C;" d="M-654.845,865.291c2.334,0,4.213,0.924,4.213,2.073v85.777c0,1.148-1.879,2.073-4.213,2.073
				s-4.213-0.924-4.213-2.073v-85.777C-659.058,866.215-657.179,865.291-654.845,865.291z"/>
			<path style="fill:#E74C3C;" d="M-650.873,951.005c0,2.331-0.814,4.208-1.826,4.208h-75.553c-1.011,0-1.826-1.877-1.826-4.208
				s0.814-4.208,1.826-4.208h75.553C-651.687,946.798-650.873,948.674-650.873,951.005z"/>
			<path style="fill:#E74C3C;" d="M-646.246,924.417c2.233,0.679,3.941,1.52,3.829,1.884l-8.3,27.205
				c-0.111,0.364-1.998,0.11-4.231-0.569c-2.233-0.679-3.941-1.52-3.829-1.884l8.3-27.205
				C-650.365,923.483-648.478,923.737-646.246,924.417z"/>
			
				<path image-rendering="auto" shape-rendering="auto" color-rendering="auto" color-interpolation="sRGB" style="fill:#E74C3C;" d="
				M-611.083,947.287c-3.218,0-5.842,2.621-5.842,5.836c0,3.215,2.624,5.836,5.842,5.836s5.842-2.621,5.842-5.836
				C-605.242,949.908-607.866,947.287-611.083,947.287z"/>
		</g>
		<ellipse style="fill:#E5B731;" cx="-611.082" cy="953.122" rx="4.299" ry="4.293"/>
		<g transform="translate(0 540.36)">
			<path style="fill:#FBF8E7;" d="M-632.888,413.519l9.615,9.602v12.492c-2.147,0.098-3.73,0.637-3.73,1.27
				c0,0.71,1.976,1.285,4.412,1.285c2.437,0,4.412-0.575,4.412-1.285c-0.004-0.632-1.586-1.17-3.73-1.268v-12.438l10.523-9.658
				H-632.888z"/>
			<path style="fill:#4BB7C0;" d="M-633.015,405.824c-0.177,0.011-0.349,0.098-0.475,0.26l-2.863,3.697
				c-0.251,0.324-0.218,0.822,0.074,1.113s0.729,0.264,0.98-0.06l2.527-3.268l7.688,9.279h-3.377l6.057,6.049l6.59-6.049h-7.691
				c-2.999-3.615-5.916-7.379-9.004-10.82C-632.647,405.872-632.838,405.813-633.015,405.824L-633.015,405.824z"/>
			<g>
				<path style="fill:#3C517D;" d="M-574.456,221.463c-11.524,2.129-19.277,11.27-19.582,23.086
					c-0.202,8.361,3.367,17.056,9.789,23.844h-23.805l11.736,19.289l51.834-0.211l8.838-19.078h-40.021L-574.456,221.463z"/>
				<path style="fill:#3C517D;" d="M-454.085,181.791c-11.524,2.129-19.277,11.27-19.582,23.086
					c-0.202,8.362,3.368,17.057,9.791,23.846h-23.809l11.738,19.287l44.785-0.182c-0.113-6.381-0.488-12.755-1.123-19.105h-23.012
					L-454.085,181.791z"/>
			</g>
		</g>
		<path style="opacity:0.15;fill:#3B3C3D;enable-background:new    ;" d="M-665.212,556.302
			c-99.769,0-184.791,62.03-217.213,148.972c38.154-80.247,121.047-135.841,217.183-135.841c96.139,0,179.06,55.59,217.213,135.841
			C-480.443,618.331-565.443,556.302-665.212,556.302L-665.212,556.302z"/>
	</g>
</g>
<g>
</g>
<g>
</g>
<g>
</g>
<g>
</g>
<g>
</g>
<g>
</g>
<g>
</g>
<g>
</g>
<g>
</g>
<g>
</g>
<g>
</g>
<g>
</g>
<g>
</g>
<g>
</g>
<g>
</g>
</svg>
