<svg version="1.1" viewBox="0.0 0.0 119.74540682414698 120.0" fill="none" stroke="none" stroke-linecap="square" stroke-miterlimit="10" xmlns:xlink="http://www.w3.org/1999/xlink" xmlns="http://www.w3.org/2000/svg"><clipPath id="p.0"><path d="m0 0l119.74541 0l0 120.0l-119.74541 0l0 -120.0z" clip-rule="nonzero"/></clipPath><g clip-path="url(#p.0)"><path fill="#000000" fill-opacity="0.0" d="m0 0l119.74541 0l0 120.0l-119.74541 0z" fill-rule="evenodd"/><path fill="#000000" fill-opacity="0.0" d="m39.79424 17.33939l0 0c5.2917976 0 10.366859 4.4100533 14.1087265 12.260002c3.741867 7.849949 5.8440285 18.496761 5.8440285 29.598267l-19.952755 0z" fill-rule="evenodd"/><path fill="#000000" fill-opacity="0.0" d="m39.79424 17.33939l0 0c5.2917976 0 10.366859 4.4100533 14.1087265 12.260002c3.741867 7.849949 5.8440285 18.496761 5.8440285 29.598267" fill-rule="evenodd"/><path stroke="#ffd966" stroke-width="24.0" stroke-linejoin="round" stroke-linecap="butt" d="m39.79424 17.33939l0 0c5.2917976 0 10.366859 4.4100533 14.1087265 12.260002c3.741867 7.849949 5.8440285 18.496761 5.8440285 29.598267" fill-rule="evenodd"/><path fill="#000000" fill-opacity="0.0" d="m39.809986 17.33939l0 0c-5.2918015 0 -10.366861 4.4100533 -14.10873 12.260002c-3.741867 7.849949 -5.8440266 18.496761 -5.8440266 29.598267l19.952757 0z" fill-rule="evenodd"/><path fill="#000000" fill-opacity="0.0" d="m39.809986 17.33939l0 0c-5.2918015 0 -10.366861 4.4100533 -14.10873 12.260002c-3.741867 7.849949 -5.8440266 18.496761 -5.8440266 29.598267" fill-rule="evenodd"/><path stroke="#ff0000" stroke-width="24.0" stroke-linejoin="round" stroke-linecap="butt" d="m39.809986 17.33939l0 0c-5.2918015 0 -10.366861 4.4100533 -14.10873 12.260002c-3.741867 7.849949 -5.8440266 18.496761 -5.8440266 29.598267" fill-rule="evenodd"/><path fill="#000000" fill-opacity="0.0" d="m79.7155 101.041855l0 0c5.291794 0 10.366859 -4.410057 14.1087265 -12.260002c3.741867 -7.849945 5.8440247 -18.496765 5.8440247 -29.598267l-19.952751 0z" fill-rule="evenodd"/><path fill="#000000" fill-opacity="0.0" d="m79.7155 101.041855l0 0c5.291794 0 10.366859 -4.410057 14.1087265 -12.260002c3.741867 -7.849945 5.8440247 -18.496765 5.8440247 -29.598267" fill-rule="evenodd"/><path stroke="#6fa8dc" stroke-width="24.0" stroke-linejoin="round" stroke-linecap="butt" d="m79.7155 101.041855l0 0c5.291794 0 10.366859 -4.410057 14.1087265 -12.260002c3.741867 -7.849945 5.8440247 -18.496765 5.8440247 -29.598267" fill-rule="evenodd"/><path fill="#000000" fill-opacity="0.0" d="m79.73125 101.041855l0 0c-5.2918015 0 -10.366859 -4.410057 -14.108734 -12.260002c-3.7418633 -7.849945 -5.8440247 -18.496765 -5.8440247 -29.598267l19.952759 0z" fill-rule="evenodd"/><path fill="#000000" fill-opacity="0.0" d="m79.73125 101.041855l0 0c-5.2918015 0 -10.366859 -4.410057 -14.108734 -12.260002c-3.7418633 -7.849945 -5.8440247 -18.496765 -5.8440247 -29.598267" fill-rule="evenodd"/><path stroke="#93c47d" stroke-width="24.0" stroke-linejoin="round" stroke-linecap="butt" d="m79.73125 101.041855l0 0c-5.2918015 0 -10.366859 -4.410057 -14.108734 -12.260002c-3.7418633 -7.849945 -5.8440247 -18.496765 -5.8440247 -29.598267" fill-rule="evenodd"/><path fill="#6fa8dc" d="m81.72179 60.572258l0 0c0 -9.793266 7.889656 -17.73228 17.622047 -17.73228l0 0c4.6736526 0 9.155891 1.8682175 12.46067 5.1936646c3.3047714 3.325447 5.161377 7.835724 5.161377 12.538616l0 0c0 9.793274 -7.8896637 17.732285 -17.622047 17.732285l0 0c-9.732391 0 -17.622047 -7.9390106 -17.622047 -17.732285z" fill-rule="evenodd"/><path fill="#ff0000" d="m1.7217848 60.572258l0 0c0 -9.793266 7.88966 -17.73228 17.622047 -17.73228l0 0c4.6736584 0 9.155893 1.8682175 12.460669 5.1936646c3.3047752 3.325447 5.161377 7.835724 5.161377 12.538616l0 0c0 9.793274 -7.889658 17.732285 -17.622046 17.732285l0 0c-9.732388 0 -17.622047 -7.9390106 -17.622047 -17.732285z" fill-rule="evenodd"/></g></svg>